<svg width="292" height="292" viewBox="0 0 292 292" fill="none" xmlns="http://www.w3.org/2000/svg">
<circle cx="91" cy="3" r="3" fill="#F3F0EA"/>
<circle cx="201" cy="3" r="3" fill="#F3F0EA"/>
<circle cx="3" cy="3" r="3" fill="#F3F0EA"/>
<circle cx="113" cy="3" r="3" fill="#F3F0EA"/>
<circle cx="223" cy="3" r="3" fill="#F3F0EA"/>
<circle cx="25" cy="3" r="3" fill="#F3F0EA"/>
<circle cx="135" cy="3" r="3" fill="#F3F0EA"/>
<circle cx="245" cy="3" r="3" fill="#F3F0EA"/>
<circle cx="47" cy="3" r="3" fill="#F3F0EA"/>
<circle cx="157" cy="3" r="3" fill="#F3F0EA"/>
<circle cx="267" cy="3" r="3" fill="#F3F0EA"/>
<circle cx="69" cy="3" r="3" fill="#F3F0EA"/>
<circle cx="179" cy="3" r="3" fill="#F3F0EA"/>
<circle cx="289" cy="3" r="3" fill="#F3F0EA"/>
<circle cx="91" cy="47" r="3" fill="#F3F0EA"/>
<circle cx="201" cy="47" r="3" fill="#F3F0EA"/>
<circle cx="3" cy="47" r="3" fill="#F3F0EA"/>
<circle cx="113" cy="47" r="3" fill="#F3F0EA"/>
<circle cx="223" cy="47" r="3" fill="#F3F0EA"/>
<circle cx="25" cy="47" r="3" fill="#F3F0EA"/>
<circle cx="135" cy="47" r="3" fill="#F3F0EA"/>
<circle cx="245" cy="47" r="3" fill="#F3F0EA"/>
<circle cx="47" cy="47" r="3" fill="#F3F0EA"/>
<circle cx="157" cy="47" r="3" fill="#F3F0EA"/>
<circle cx="267" cy="47" r="3" fill="#F3F0EA"/>
<circle cx="69" cy="47" r="3" fill="#F3F0EA"/>
<circle cx="179" cy="47" r="3" fill="#F3F0EA"/>
<circle cx="289" cy="47" r="3" fill="#F3F0EA"/>
<circle cx="91" cy="25" r="3" fill="#F3F0EA"/>
<circle cx="201" cy="25" r="3" fill="#F3F0EA"/>
<circle cx="3" cy="25" r="3" fill="#F3F0EA"/>
<circle cx="113" cy="25" r="3" fill="#F3F0EA"/>
<circle cx="223" cy="25" r="3" fill="#F3F0EA"/>
<circle cx="25" cy="25" r="3" fill="#F3F0EA"/>
<circle cx="135" cy="25" r="3" fill="#F3F0EA"/>
<circle cx="245" cy="25" r="3" fill="#F3F0EA"/>
<circle cx="47" cy="25" r="3" fill="#F3F0EA"/>
<circle cx="157" cy="25" r="3" fill="#F3F0EA"/>
<circle cx="267" cy="25" r="3" fill="#F3F0EA"/>
<circle cx="69" cy="25" r="3" fill="#F3F0EA"/>
<circle cx="179" cy="25" r="3" fill="#F3F0EA"/>
<circle cx="289" cy="25" r="3" fill="#F3F0EA"/>
<circle cx="91" cy="69" r="3" fill="#F3F0EA"/>
<circle cx="201" cy="69" r="3" fill="#F3F0EA"/>
<circle cx="3" cy="69" r="3" fill="#F3F0EA"/>
<circle cx="113" cy="69" r="3" fill="#F3F0EA"/>
<circle cx="223" cy="69" r="3" fill="#F3F0EA"/>
<circle cx="25" cy="69" r="3" fill="#F3F0EA"/>
<circle cx="135" cy="69" r="3" fill="#F3F0EA"/>
<circle cx="245" cy="69" r="3" fill="#F3F0EA"/>
<circle cx="47" cy="69" r="3" fill="#F3F0EA"/>
<circle cx="157" cy="69" r="3" fill="#F3F0EA"/>
<circle cx="267" cy="69" r="3" fill="#F3F0EA"/>
<circle cx="69" cy="69" r="3" fill="#F3F0EA"/>
<circle cx="179" cy="69" r="3" fill="#F3F0EA"/>
<circle cx="289" cy="69" r="3" fill="#F3F0EA"/>
<circle cx="91" cy="91" r="3" fill="#F3F0EA"/>
<circle cx="201" cy="91" r="3" fill="#F3F0EA"/>
<circle cx="3" cy="91" r="3" fill="#F3F0EA"/>
<circle cx="113" cy="91" r="3" fill="#F3F0EA"/>
<circle cx="223" cy="91" r="3" fill="#F3F0EA"/>
<circle cx="25" cy="91" r="3" fill="#F3F0EA"/>
<circle cx="135" cy="91" r="3" fill="#F3F0EA"/>
<circle cx="245" cy="91" r="3" fill="#F3F0EA"/>
<circle cx="47" cy="91" r="3" fill="#F3F0EA"/>
<circle cx="157" cy="91" r="3" fill="#F3F0EA"/>
<circle cx="267" cy="91" r="3" fill="#F3F0EA"/>
<circle cx="69" cy="91" r="3" fill="#F3F0EA"/>
<circle cx="179" cy="91" r="3" fill="#F3F0EA"/>
<circle cx="289" cy="91" r="3" fill="#F3F0EA"/>
<circle cx="91" cy="179" r="3" fill="#F3F0EA"/>
<circle cx="201" cy="179" r="3" fill="#F3F0EA"/>
<circle cx="3" cy="179" r="3" fill="#F3F0EA"/>
<circle cx="113" cy="179" r="3" fill="#F3F0EA"/>
<circle cx="223" cy="179" r="3" fill="#F3F0EA"/>
<circle cx="25" cy="179" r="3" fill="#F3F0EA"/>
<circle cx="135" cy="179" r="3" fill="#F3F0EA"/>
<circle cx="245" cy="179" r="3" fill="#F3F0EA"/>
<circle cx="47" cy="179" r="3" fill="#F3F0EA"/>
<circle cx="157" cy="179" r="3" fill="#F3F0EA"/>
<circle cx="267" cy="179" r="3" fill="#F3F0EA"/>
<circle cx="69" cy="179" r="3" fill="#F3F0EA"/>
<circle cx="179" cy="179" r="3" fill="#F3F0EA"/>
<circle cx="289" cy="179" r="3" fill="#F3F0EA"/>
<circle cx="91" cy="267" r="3" fill="#F3F0EA"/>
<circle cx="201" cy="267" r="3" fill="#F3F0EA"/>
<circle cx="3" cy="267" r="3" fill="#F3F0EA"/>
<circle cx="113" cy="267" r="3" fill="#F3F0EA"/>
<circle cx="223" cy="267" r="3" fill="#F3F0EA"/>
<circle cx="25" cy="267" r="3" fill="#F3F0EA"/>
<circle cx="135" cy="267" r="3" fill="#F3F0EA"/>
<circle cx="245" cy="267" r="3" fill="#F3F0EA"/>
<circle cx="47" cy="267" r="3" fill="#F3F0EA"/>
<circle cx="157" cy="267" r="3" fill="#F3F0EA"/>
<circle cx="267" cy="267" r="3" fill="#F3F0EA"/>
<circle cx="69" cy="267" r="3" fill="#F3F0EA"/>
<circle cx="179" cy="267" r="3" fill="#F3F0EA"/>
<circle cx="289" cy="267" r="3" fill="#F3F0EA"/>
<circle cx="91" cy="135" r="3" fill="#F3F0EA"/>
<circle cx="201" cy="135" r="3" fill="#F3F0EA"/>
<circle cx="3" cy="135" r="3" fill="#F3F0EA"/>
<circle cx="113" cy="135" r="3" fill="#F3F0EA"/>
<circle cx="223" cy="135" r="3" fill="#F3F0EA"/>
<circle cx="25" cy="135" r="3" fill="#F3F0EA"/>
<circle cx="135" cy="135" r="3" fill="#F3F0EA"/>
<circle cx="245" cy="135" r="3" fill="#F3F0EA"/>
<circle cx="47" cy="135" r="3" fill="#F3F0EA"/>
<circle cx="157" cy="135" r="3" fill="#F3F0EA"/>
<circle cx="267" cy="135" r="3" fill="#F3F0EA"/>
<circle cx="69" cy="135" r="3" fill="#F3F0EA"/>
<circle cx="179" cy="135" r="3" fill="#F3F0EA"/>
<circle cx="289" cy="135" r="3" fill="#F3F0EA"/>
<circle cx="91" cy="223" r="3" fill="#F3F0EA"/>
<circle cx="201" cy="223" r="3" fill="#F3F0EA"/>
<circle cx="3" cy="223" r="3" fill="#F3F0EA"/>
<circle cx="113" cy="223" r="3" fill="#F3F0EA"/>
<circle cx="223" cy="223" r="3" fill="#F3F0EA"/>
<circle cx="25" cy="223" r="3" fill="#F3F0EA"/>
<circle cx="135" cy="223" r="3" fill="#F3F0EA"/>
<circle cx="245" cy="223" r="3" fill="#F3F0EA"/>
<circle cx="47" cy="223" r="3" fill="#F3F0EA"/>
<circle cx="157" cy="223" r="3" fill="#F3F0EA"/>
<circle cx="267" cy="223" r="3" fill="#F3F0EA"/>
<circle cx="69" cy="223" r="3" fill="#F3F0EA"/>
<circle cx="179" cy="223" r="3" fill="#F3F0EA"/>
<circle cx="289" cy="223" r="3" fill="#F3F0EA"/>
<circle cx="91" cy="113" r="3" fill="#F3F0EA"/>
<circle cx="201" cy="113" r="3" fill="#F3F0EA"/>
<circle cx="3" cy="113" r="3" fill="#F3F0EA"/>
<circle cx="113" cy="113" r="3" fill="#F3F0EA"/>
<circle cx="223" cy="113" r="3" fill="#F3F0EA"/>
<circle cx="25" cy="113" r="3" fill="#F3F0EA"/>
<circle cx="135" cy="113" r="3" fill="#F3F0EA"/>
<circle cx="245" cy="113" r="3" fill="#F3F0EA"/>
<circle cx="47" cy="113" r="3" fill="#F3F0EA"/>
<circle cx="157" cy="113" r="3" fill="#F3F0EA"/>
<circle cx="267" cy="113" r="3" fill="#F3F0EA"/>
<circle cx="69" cy="113" r="3" fill="#F3F0EA"/>
<circle cx="179" cy="113" r="3" fill="#F3F0EA"/>
<circle cx="289" cy="113" r="3" fill="#F3F0EA"/>
<circle cx="91" cy="201" r="3" fill="#F3F0EA"/>
<circle cx="201" cy="201" r="3" fill="#F3F0EA"/>
<circle cx="3" cy="201" r="3" fill="#F3F0EA"/>
<circle cx="113" cy="201" r="3" fill="#F3F0EA"/>
<circle cx="223" cy="201" r="3" fill="#F3F0EA"/>
<circle cx="25" cy="201" r="3" fill="#F3F0EA"/>
<circle cx="135" cy="201" r="3" fill="#F3F0EA"/>
<circle cx="245" cy="201" r="3" fill="#F3F0EA"/>
<circle cx="47" cy="201" r="3" fill="#F3F0EA"/>
<circle cx="157" cy="201" r="3" fill="#F3F0EA"/>
<circle cx="267" cy="201" r="3" fill="#F3F0EA"/>
<circle cx="69" cy="201" r="3" fill="#F3F0EA"/>
<circle cx="179" cy="201" r="3" fill="#F3F0EA"/>
<circle cx="289" cy="201" r="3" fill="#F3F0EA"/>
<circle cx="91" cy="289" r="3" fill="#F3F0EA"/>
<circle cx="201" cy="289" r="3" fill="#F3F0EA"/>
<circle cx="3" cy="289" r="3" fill="#F3F0EA"/>
<circle cx="113" cy="289" r="3" fill="#F3F0EA"/>
<circle cx="223" cy="289" r="3" fill="#F3F0EA"/>
<circle cx="25" cy="289" r="3" fill="#F3F0EA"/>
<circle cx="135" cy="289" r="3" fill="#F3F0EA"/>
<circle cx="245" cy="289" r="3" fill="#F3F0EA"/>
<circle cx="47" cy="289" r="3" fill="#F3F0EA"/>
<circle cx="157" cy="289" r="3" fill="#F3F0EA"/>
<circle cx="267" cy="289" r="3" fill="#F3F0EA"/>
<circle cx="69" cy="289" r="3" fill="#F3F0EA"/>
<circle cx="179" cy="289" r="3" fill="#F3F0EA"/>
<circle cx="289" cy="289" r="3" fill="#F3F0EA"/>
<circle cx="91" cy="157" r="3" fill="#F3F0EA"/>
<circle cx="201" cy="157" r="3" fill="#F3F0EA"/>
<circle cx="3" cy="157" r="3" fill="#F3F0EA"/>
<circle cx="113" cy="157" r="3" fill="#F3F0EA"/>
<circle cx="223" cy="157" r="3" fill="#F3F0EA"/>
<circle cx="25" cy="157" r="3" fill="#F3F0EA"/>
<circle cx="135" cy="157" r="3" fill="#F3F0EA"/>
<circle cx="245" cy="157" r="3" fill="#F3F0EA"/>
<circle cx="47" cy="157" r="3" fill="#F3F0EA"/>
<circle cx="157" cy="157" r="3" fill="#F3F0EA"/>
<circle cx="267" cy="157" r="3" fill="#F3F0EA"/>
<circle cx="69" cy="157" r="3" fill="#F3F0EA"/>
<circle cx="179" cy="157" r="3" fill="#F3F0EA"/>
<circle cx="289" cy="157" r="3" fill="#F3F0EA"/>
<circle cx="91" cy="245" r="3" fill="#F3F0EA"/>
<circle cx="201" cy="245" r="3" fill="#F3F0EA"/>
<circle cx="3" cy="245" r="3" fill="#F3F0EA"/>
<circle cx="113" cy="245" r="3" fill="#F3F0EA"/>
<circle cx="223" cy="245" r="3" fill="#F3F0EA"/>
<circle cx="25" cy="245" r="3" fill="#F3F0EA"/>
<circle cx="135" cy="245" r="3" fill="#F3F0EA"/>
<circle cx="245" cy="245" r="3" fill="#F3F0EA"/>
<circle cx="47" cy="245" r="3" fill="#F3F0EA"/>
<circle cx="157" cy="245" r="3" fill="#F3F0EA"/>
<circle cx="267" cy="245" r="3" fill="#F3F0EA"/>
<circle cx="69" cy="245" r="3" fill="#F3F0EA"/>
<circle cx="179" cy="245" r="3" fill="#F3F0EA"/>
<circle cx="289" cy="245" r="3" fill="#F3F0EA"/>
</svg>
